<svg width="111" height="21" viewBox="0 0 111 21" fill="none" xmlns="http://www.w3.org/2000/svg">
<path d="M0.684 20H4.236V12.8H10.548V9.824H4.236V5.192H11.628V2.24H0.684V20ZM17.9391 20V0.847999H14.4351V20H17.9391ZM27.6214 20.336C30.9814 20.336 34.0774 17.72 34.0774 13.304C34.0774 8.816 30.9814 6.224 27.6214 6.224C24.2614 6.224 21.1654 8.816 21.1654 13.304C21.1654 17.72 24.2614 20.336 27.6214 20.336ZM27.6214 17.456C25.7974 17.456 24.7654 15.824 24.7654 13.304C24.7654 10.712 25.7974 9.104 27.6214 9.104C29.4454 9.104 30.4774 10.712 30.4774 13.304C30.4774 15.824 29.4454 17.456 27.6214 17.456ZM39.2608 20H43.2928L44.6608 14.144C44.9488 12.896 45.1408 11.672 45.4048 10.232H45.5248C45.7888 11.672 46.0048 12.872 46.2928 14.144L47.7088 20H51.8608L55.1728 6.56H51.9088L50.4448 13.208C50.1808 14.552 50.0368 15.776 49.7728 17.12H49.6528C49.3648 15.776 49.1248 14.552 48.8128 13.208L47.1328 6.56H43.9888L42.3808 13.208C42.0208 14.48 41.8048 15.776 41.5408 17.12H41.4448C41.1808 15.776 41.0368 14.552 40.7728 13.208L39.3088 6.56H35.7808L39.2608 20ZM65.2836 20.336C67.6116 20.336 69.4836 19.472 70.9476 17.72L69.0756 15.512C68.1156 16.544 66.9396 17.264 65.4036 17.264C62.5956 17.264 60.7716 14.936 60.7716 11.072C60.7716 7.256 62.7876 4.952 65.4756 4.952C66.8196 4.952 67.8516 5.576 68.7396 6.44L70.6116 4.184C69.4596 2.96 67.7076 1.904 65.4036 1.904C60.9156 1.904 57.1476 5.336 57.1476 11.192C57.1476 17.12 60.7716 20.336 65.2836 20.336ZM73.521 20H77.025V10.76C78.057 9.776 78.705 9.248 79.833 9.248C81.177 9.248 81.729 9.968 81.729 12.056V20H85.257V11.624C85.257 8.24 84.009 6.224 81.105 6.224C79.281 6.224 77.961 7.16 76.881 8.192L77.025 5.672V0.847999H73.521V20ZM92.1846 20.24C93.7206 20.24 95.0886 19.616 96.2406 18.632H96.3126L96.5766 20H99.4566V12.152C99.4566 8.192 97.7286 6.224 94.2966 6.224C92.1846 6.224 90.1686 6.92 88.7046 7.808L89.7606 10.328C90.9846 9.536 92.4006 9.056 93.6486 9.056C94.6806 9.056 95.3286 9.272 95.6166 9.68C95.8806 10.232 96.0006 10.808 95.9286 11.384C90.3606 11.552 88.0326 13.064 88.2006 16.352C88.2006 18.68 89.7846 20.24 92.1846 20.24ZM93.2646 17.552C92.2326 17.552 91.4646 16.88 91.4406 15.752C91.4166 14.792 91.9686 14.024 93.5046 13.808C94.2726 13.688 95.0886 13.616 95.9286 13.544V16.256C95.0886 17.096 94.2966 17.528 93.2646 17.552ZM107.527 20.336C108.703 20.336 109.615 20.096 110.359 19.832L109.783 17.264C109.423 17.432 108.919 17.552 108.463 17.552C107.239 17.552 106.639 16.808 106.639 15.296V9.344H109.951V6.56H106.639V2.96H103.687L103.279 6.56L101.215 6.728V9.344H103.111V15.296C103.111 18.32 104.335 20.336 107.527 20.336Z" fill="black"/>
</svg>
